<svg width="32" height="32" viewBox="0 0 32 32" fill="none" xmlns="http://www.w3.org/2000/svg">
  <rect width="32" height="32" rx="4" fill="#1a1a1a"/>
  
  <!-- Fire flames -->
  <path d="M16 6c-1.5 3-3 4.5-3 7.5 0 1.5 1 3 2.5 3.5-0.5-1-0.5-2 0.5-2.5 1-0.5 2-1.5 2-3 0-1.5-1-3-2-5z" fill="#ff6b35"/>
  <path d="M20 8c-1 2-2 3-2 5.5 0 1 0.5 2 1.5 2.5-0.5-0.5-0.5-1.5 0-2 0.5-0.5 1.5-1 1.5-2.5 0-1-0.5-2-1-3.5z" fill="#ff8c42"/>
  <path d="M12 9c-0.5 1.5-1 2.5-1 4 0 0.8 0.3 1.5 1 2-0.3-0.5-0.3-1 0.3-1.5 0.5-0.3 1-0.8 1-2 0-0.8-0.5-1.5-1.3-2.5z" fill="#ffa726"/>
  
  <!-- Grill base -->
  <rect x="8" y="22" width="16" height="2" rx="1" fill="#666"/>
  <rect x="10" y="24" width="12" height="1" fill="#444"/>
  
  <!-- Grill lines -->
  <line x1="10" y1="20" x2="22" y2="20" stroke="#888" stroke-width="0.5"/>
  <line x1="10" y1="21" x2="22" y2="21" stroke="#888" stroke-width="0.5"/>
</svg>