<svg width="200" height="200" viewBox="0 0 200 200" xmlns="http://www.w3.org/2000/svg">
  <defs>
    <pattern id="meatPattern" x="0" y="0" width="200" height="200" patternUnits="userSpaceOnUse">
      <!-- Steak cuts -->
      <g fill="#f3f4f6" stroke="#9ca3af" stroke-width="1.5" opacity="0.4">
        <!-- T-bone steak -->
        <path d="M20 30 Q35 25 50 30 Q55 35 50 45 Q45 50 35 45 Q25 40 20 30 Z" />
        <path d="M25 35 Q30 32 35 35 Q38 38 35 42 Q30 45 25 42 Q22 38 25 35 Z" />
        
        <!-- Ribeye -->
        <ellipse cx="150" cy="50" rx="25" ry="18" />
        <ellipse cx="150" cy="50" rx="15" ry="10" />
        
        <!-- Chicken drumstick -->
        <path d="M80 80 Q85 75 95 80 Q100 85 95 95 Q90 100 85 95 Q75 90 80 80 Z" />
        <circle cx="95" cy="75" r="8" />
        
        <!-- Pork chop -->
        <path d="M30 120 Q45 115 60 120 Q65 125 60 135 Q55 140 45 135 Q35 130 30 120 Z" />
        <path d="M35 125 Q40 122 45 125 Q48 128 45 132 Q40 135 35 132 Q32 128 35 125 Z" />
        
        <!-- Lamb chop -->
        <path d="M120 130 Q135 125 150 130 Q155 135 150 145 Q145 150 135 145 Q125 140 120 130 Z" />
        <circle cx="125" cy="135" r="6" />
        
        <!-- Sausage -->
        <ellipse cx="170" cy="120" rx="8" ry="20" />
        <ellipse cx="170" cy="115" rx="6" ry="4" />
        <ellipse cx="170" cy="125" rx="6" ry="4" />
        
        <!-- Fish -->
        <path d="M40 170 Q55 165 70 170 Q75 175 70 180 Q65 185 55 180 Q45 175 40 170 Z" />
        <path d="M35 175 Q40 172 45 175 Q48 178 45 182 Q40 185 35 182 Q32 178 35 175 Z" />
        
        <!-- Beef ribs -->
        <rect x="100" y="160" width="30" height="8" rx="4" />
        <rect x="105" y="155" width="20" height="4" rx="2" />
        <rect x="105" y="173" width="20" height="4" rx="2" />
        
        <!-- Chicken breast -->
        <path d="M150 170 Q165 165 180 170 Q185 175 180 185 Q175 190 165 185 Q155 180 150 170 Z" />
        
        <!-- Small cuts scattered -->
        <circle cx="70" cy="40" r="8" />
        <circle cx="180" cy="80" r="6" />
        <circle cx="20" cy="90" r="7" />
        <circle cx="90" cy="20" r="5" />
        <circle cx="160" cy="180" r="9" />
        <circle cx="30" cy="180" r="6" />
        <circle cx="180" cy="30" r="7" />
        <circle cx="10" cy="160" r="8" />
        
        <!-- Bone shapes -->
        <path d="M190 100 Q195 95 200 100 Q195 105 190 100 Z" />
        <path d="M5 50 Q10 45 15 50 Q10 55 5 50 Z" />
        <path d="M190 160 Q195 155 200 160 Q195 165 190 160 Z" />
      </g>
    </pattern>
  </defs>
  <rect width="100%" height="100%" fill="url(#meatPattern)" />
</svg>